# xmcd
#
# Track frame offsets:
#	150
#	33513
#	56226
#	74392
#	95893
#	124690
#	150048
#	173825
#	196895
#	214326
#	241354
#	264847
#
# Disc length: 3906 seconds
#
# Revision: 11
# Processed by: cddbd v1.5.2PL0 Copyright (c) Steve Scherf et al.
# Submitted via: Jack! The Knife 20 Magnifico
#
DISCID=a60f400c
DTITLE=Litfiba - Stato Libero Di Litfiba [CD 2)
DYEAR=2010
DGENRE=Rock
TTITLE0=Fata Morgana
TTITLE1=Animale Di Zona
TTITLE2=A Denti Stretti
TTITLE3=Cuore Di Vetro
TTITLE4=Gioconda
TTITLE5=Ritmo 2
TTITLE6=Ci Sei Solo Tu
TTITLE7=Maudit
TTITLE8=Dimmi Il Nome
TTITLE9=El Diablo
TTITLE10=Lacio Drom
TTITLE11=Lo Spettacolo
EXTD=Litfiba
EXTT0=Pelù, Renzulli
EXTT1=Pelù, Renzulli
EXTT2=Pelù, Renzulli
EXTT3=Pelù, Renzulli, Aiazzi, Maroccolo, De Palma
EXTT4=Pelù, Renzulli
EXTT5=Pelù, Renzulli
EXTT6=Pelù, Renzulli, Aiazzi, Maroccolo, De Palma
EXTT7=Pelù, Renzulli
EXTT8=Pelù, Renzulli
EXTT9=Pelù, Renzulli
EXTT10=Pelù, Renzulli
EXTT11=Pelù, Renzulli
PLAYORDER=
